# Blender 4.3.2
# www.blender.org
o Cube
v 0.331105 -0.981399 1.287877
v 0.235215 -0.981399 1.383767
v 0.235215 -0.937284 1.287877
v -0.331105 -0.981399 1.287877
v -0.235215 -0.937284 1.287877
v -0.235215 -0.981399 1.383767
v -0.235215 -1.241942 1.384989
v -0.235215 -1.197827 1.480879
v -0.331105 -1.197827 1.384989
v -0.235215 -0.981399 1.383767
v -0.235215 -0.937284 1.287877
v -0.331105 -0.981399 1.287877
v -0.235215 -1.241942 0.427475
v -0.331105 -1.197827 0.427475
v -0.235215 -1.197827 0.331585
v -0.235215 -0.937284 0.427475
v -0.235215 -0.981399 0.331585
v -0.331105 -0.981399 0.427475
v 0.235215 -1.241942 1.384989
v 0.331105 -1.197827 1.384989
v 0.235215 -1.197827 1.480879
v 0.235215 -0.937284 1.287877
v 0.235215 -0.981399 1.383767
v 0.331105 -0.981399 1.287877
v 0.235215 -1.241942 0.427475
v 0.235215 -1.197827 0.331585
v 0.331105 -1.197827 0.427475
v 0.235215 -0.937284 0.427475
v 0.331105 -0.981399 0.427475
v 0.235215 -0.981399 0.331585
v 0.000000 1.000000 -1.525375
v 0.000000 0.500001 -2.879971
v 0.000000 0.866026 -2.259303
v 0.382683 0.923880 -1.525375
v 0.191342 0.461941 -2.879971
v 0.331414 0.800103 -2.259303
v 0.707107 0.707107 -1.525375
v 0.353554 0.353554 -2.879971
v 0.612373 0.612373 -2.259303
v 0.923880 0.382683 -1.525375
v 0.461941 0.191342 -2.879971
v 0.800103 0.331414 -2.259303
v 1.000000 0.000000 -1.525375
v 0.500001 0.000000 -2.879971
v 0.866026 0.000000 -2.259303
v 0.923880 -0.382683 -1.525375
v 0.461941 -0.191342 -2.879971
v 0.800103 -0.331414 -2.259303
v 0.707107 -0.707107 -1.525375
v 0.353554 -0.353554 -2.879971
v 0.612373 -0.612373 -2.259303
v 0.382683 -0.923879 -1.525375
v 0.191342 -0.461941 -2.879971
v 0.331414 -0.800103 -2.259303
v -0.000000 -0.000002 -3.200067
v 0.000000 -1.000000 -1.525375
v -0.000000 -0.500001 -2.879971
v -0.000000 -0.866026 -2.259303
v -0.382683 -0.923879 -1.525375
v -0.191342 -0.461941 -2.879971
v -0.331414 -0.800103 -2.259303
v -0.707107 -0.707107 -1.525375
v -0.353554 -0.353554 -2.879971
v -0.612373 -0.612373 -2.259303
v -0.923880 -0.382683 -1.525375
v -0.461941 -0.191342 -2.879971
v -0.800103 -0.331414 -2.259303
v -1.000000 0.000000 -1.525375
v -0.500001 0.000000 -2.879971
v -0.866026 0.000000 -2.259303
v -0.923880 0.382683 -1.525375
v -0.461941 0.191342 -2.879971
v -0.800103 0.331414 -2.259303
v -0.707107 0.707107 -1.525375
v -0.353554 0.353554 -2.879971
v -0.612373 0.612373 -2.259303
v -0.382683 0.923880 -1.525375
v -0.191342 0.461941 -2.879971
v -0.331414 0.800103 -2.259303
v 0.000000 1.000000 1.525375
v -0.000000 0.866025 2.259303
v -0.000000 0.500001 2.879971
v 0.382683 0.923879 1.525375
v 0.191342 0.461940 2.879971
v 0.331414 0.800103 2.259303
v 0.707107 0.707107 1.525375
v 0.353554 0.353554 2.879971
v 0.612373 0.612373 2.259303
v 0.923880 0.382683 1.525375
v 0.461941 0.191342 2.879971
v 0.800103 0.331414 2.259303
v 1.000000 -0.000000 1.525375
v 0.500001 -0.000000 2.879971
v 0.866026 -0.000000 2.259303
v 0.923880 -0.382684 1.525375
v 0.461941 -0.191342 2.879971
v 0.800103 -0.331414 2.259303
v 0.707107 -0.707107 1.525375
v 0.353554 -0.353554 2.879971
v 0.612373 -0.612373 2.259303
v 0.382683 -0.923880 1.525375
v 0.191342 -0.461941 2.879971
v 0.331414 -0.800103 2.259303
v 0.000000 -1.000000 1.525375
v 0.000000 -0.500001 2.879971
v 0.000000 -0.866026 2.259303
v -0.000001 -0.000002 3.200067
v -0.382683 -0.923880 1.525375
v -0.191342 -0.461941 2.879971
v -0.331414 -0.800103 2.259303
v -0.707107 -0.707107 1.525375
v -0.353554 -0.353554 2.879971
v -0.612373 -0.612373 2.259303
v -0.923880 -0.382684 1.525375
v -0.461941 -0.191342 2.879971
v -0.800103 -0.331414 2.259303
v -1.000000 -0.000000 1.525375
v -0.500001 -0.000000 2.879971
v -0.866026 -0.000000 2.259303
v -0.923880 0.382683 1.525375
v -0.461941 0.191342 2.879971
v -0.800103 0.331414 2.259303
v -0.707107 0.707107 1.525375
v -0.353554 0.353554 2.879971
v -0.612373 0.612373 2.259303
v -0.382683 0.923879 1.525375
v -0.191342 0.461940 2.879971
v -0.331414 0.800103 2.259303
v -0.085533 0.602421 -1.487516
v -0.085533 1.289930 -1.967728
v -0.085533 0.602421 -2.666453
v -0.085533 1.289930 -2.666453
v 0.081088 0.602421 -1.487516
v 0.081088 1.289930 -1.967728
v 0.081088 0.602421 -2.666453
v 0.081088 1.289930 -2.666453
v 0.564479 -0.227137 -1.487516
v 1.159879 -0.570891 -1.967728
v 0.564479 -0.227137 -2.666453
v 1.159879 -0.570891 -2.666453
v 0.481168 -0.371435 -1.487516
v 1.076568 -0.715189 -1.967728
v 0.481168 -0.371435 -2.666453
v 1.076568 -0.715189 -2.666453
v -0.478946 -0.375285 -1.487516
v -1.074346 -0.719039 -1.967728
v -0.478946 -0.375285 -2.666453
v -1.074346 -0.719039 -2.666453
v -0.562256 -0.230987 -1.487516
v -1.157656 -0.574741 -1.967728
v -0.562256 -0.230987 -2.666453
v -1.157656 -0.574741 -2.666453
vn 0.3856 0.8382 0.3856
vn 0.1457 0.8988 0.4135
vn -0.3856 0.8382 0.3856
vn -0.1457 0.8988 0.4135
vn -0.1740 -0.9693 0.1740
vn -0.3065 -0.4951 0.8129
vn -0.7597 -0.5660 0.3201
vn -0.3712 0.3801 0.8472
vn -0.1872 0.9823 -0.0000
vn -0.7883 0.5810 0.2027
vn -0.1740 -0.9693 -0.1740
vn -0.7310 -0.6199 -0.2852
vn -0.2852 -0.6199 -0.7310
vn -0.1740 0.9693 -0.1740
vn -0.2852 0.6199 -0.7310
vn -0.7310 0.6199 -0.2852
vn 0.1740 -0.9693 0.1740
vn 0.7597 -0.5660 0.3201
vn 0.3065 -0.4951 0.8129
vn 0.1872 0.9823 -0.0000
vn 0.3712 0.3801 0.8472
vn 0.7883 0.5810 0.2027
vn 0.1740 -0.9693 -0.1740
vn 0.2852 -0.6199 -0.7310
vn 0.7310 -0.6199 -0.2852
vn 0.1740 0.9693 -0.1740
vn 0.7310 0.6199 -0.2852
vn 0.2852 0.6199 -0.7310
vn -0.0000 0.9965 -0.0837
vn -0.0000 0.7767 -0.6299
vn -0.0000 0.9528 -0.3037
vn 0.3442 0.9349 -0.0867
vn 0.2897 0.7023 -0.6503
vn 0.3345 0.8860 -0.3211
vn 0.6785 0.7292 -0.0892
vn 0.5201 0.5241 -0.6744
vn 0.6423 0.6873 -0.3392
vn 0.9127 0.3987 -0.0897
vn 0.6716 0.2825 -0.6849
vn 0.8595 0.3772 -0.3449
vn 0.9960 -0.0000 -0.0897
vn 0.7263 -0.0000 -0.6874
vn 0.9383 -0.0000 -0.3459
vn 0.9127 -0.3987 -0.0897
vn 0.6716 -0.2825 -0.6849
vn 0.8595 -0.3772 -0.3449
vn 0.6785 -0.7292 -0.0892
vn 0.5201 -0.5241 -0.6744
vn 0.6423 -0.6873 -0.3392
vn 0.3442 -0.9349 -0.0867
vn 0.2897 -0.7023 -0.6503
vn 0.3345 -0.8860 -0.3211
vn -0.0000 -0.0000 -1.0000
vn -0.0000 -0.9965 -0.0837
vn -0.0000 -0.7767 -0.6299
vn -0.0000 -0.9528 -0.3037
vn -0.3442 -0.9349 -0.0867
vn -0.2897 -0.7023 -0.6503
vn -0.3345 -0.8860 -0.3211
vn -0.6785 -0.7292 -0.0892
vn -0.5201 -0.5241 -0.6744
vn -0.6423 -0.6873 -0.3392
vn -0.9127 -0.3987 -0.0897
vn -0.6716 -0.2825 -0.6849
vn -0.8595 -0.3772 -0.3449
vn -0.9960 -0.0000 -0.0897
vn -0.7263 -0.0000 -0.6874
vn -0.9383 -0.0000 -0.3459
vn -0.9127 0.3987 -0.0897
vn -0.6716 0.2825 -0.6849
vn -0.8595 0.3772 -0.3449
vn -0.6785 0.7292 -0.0892
vn -0.5201 0.5241 -0.6744
vn -0.6423 0.6873 -0.3392
vn -0.3442 0.9349 -0.0867
vn -0.2897 0.7023 -0.6503
vn -0.3345 0.8860 -0.3211
vn -0.0000 0.9965 0.0837
vn -0.0000 0.9528 0.3037
vn -0.0000 0.7767 0.6299
vn 0.3442 0.9349 0.0867
vn 0.2897 0.7023 0.6503
vn 0.3345 0.8860 0.3211
vn 0.6785 0.7292 0.0892
vn 0.5201 0.5241 0.6744
vn 0.6423 0.6873 0.3392
vn 0.9127 0.3987 0.0897
vn 0.6716 0.2825 0.6849
vn 0.8595 0.3772 0.3449
vn 0.9960 -0.0000 0.0897
vn 0.7263 -0.0000 0.6874
vn 0.9383 -0.0000 0.3459
vn 0.9127 -0.3987 0.0897
vn 0.6716 -0.2825 0.6849
vn 0.8595 -0.3772 0.3449
vn 0.6785 -0.7292 0.0892
vn 0.5201 -0.5241 0.6744
vn 0.6423 -0.6873 0.3392
vn 0.3442 -0.9349 0.0867
vn 0.2897 -0.7023 0.6503
vn 0.3345 -0.8860 0.3211
vn -0.0000 -0.9965 0.0837
vn -0.0000 -0.7767 0.6299
vn -0.0000 -0.9528 0.3037
vn -0.0000 -0.0000 1.0000
vn -0.3442 -0.9349 0.0867
vn -0.2897 -0.7023 0.6503
vn -0.3345 -0.8860 0.3211
vn -0.6785 -0.7292 0.0892
vn -0.5201 -0.5241 0.6744
vn -0.6423 -0.6873 0.3392
vn -0.9127 -0.3987 0.0897
vn -0.6716 -0.2825 0.6849
vn -0.8595 -0.3772 0.3449
vn -0.9960 -0.0000 0.0897
vn -0.7263 -0.0000 0.6874
vn -0.9383 -0.0000 0.3459
vn -0.9127 0.3987 0.0897
vn -0.6716 0.2825 0.6849
vn -0.8595 0.3772 0.3449
vn -0.6785 0.7292 0.0892
vn -0.5201 0.5241 0.6744
vn -0.6423 0.6873 0.3392
vn -0.3442 0.9349 0.0867
vn -0.2897 0.7023 0.6503
vn -0.3345 0.8860 0.3211
vn -0.4101 -0.7713 0.4868
vn -0.3715 0.8802 0.2952
vn -0.3856 -0.8382 -0.3856
vn -0.3856 0.8382 -0.3856
vn 0.4101 -0.7713 0.4868
vn 0.3715 0.8802 0.2952
vn 0.3856 -0.8382 -0.3856
vn 0.3856 0.8382 -0.3856
vn -0.0607 0.9228 0.3806
vn 0.8862 0.2637 0.3810
vn -0.0917 0.9510 -0.2952
vn 0.7343 0.3345 -0.5906
vn -0.5058 -0.4911 0.7092
vn 0.1094 -0.9713 0.2112
vn -0.7343 -0.3345 -0.5906
vn 0.0917 -0.9510 -0.2952
vn 0.5058 -0.4911 0.7092
vn -0.1094 -0.9713 0.2112
vn 0.7343 -0.3345 -0.5906
vn -0.0917 -0.9510 -0.2952
vn 0.0607 0.9228 0.3806
vn -0.8862 0.2637 0.3810
vn 0.0917 0.9510 -0.2952
vn -0.7343 0.3345 -0.5906
vt 0.827259 0.873444
vt 0.780580 0.873444
vt 0.780580 0.827676
vt 0.827259 0.827676
vt 0.834789 0.549068
vt 0.789159 0.549068
vt 0.789159 0.465359
vt 0.834789 0.455911
vt 0.896563 0.807583
vt 0.885900 0.807583
vt 0.895117 0.798254
vt 0.834231 0.744591
vt 0.788463 0.744591
vt 0.788463 0.660883
vt 0.834231 0.660883
vt 0.824763 0.446582
vt 0.779134 0.437134
vt 0.779134 0.353426
vt 0.824763 0.353426
vt 0.824902 0.809018
vt 0.779134 0.809018
vt 0.779134 0.763249
vt 0.824902 0.763249
vt 0.834789 0.446582
vt 0.825488 0.455911
vt 0.834789 0.353426
vt 0.825488 0.344096
vt 0.788463 0.753920
vt 0.779134 0.744591
vt 0.788463 0.567726
vt 0.779134 0.567726
vt 0.788463 0.558397
vt 0.834231 0.763249
vt 0.824902 0.753920
vt 0.779134 0.549068
vt 0.788435 0.558397
vt 0.779134 0.818347
vt 0.825813 0.818347
vt 0.779134 0.660883
vt 0.824902 0.818347
vt 0.779134 0.818347
vt 0.834231 0.809018
vt 0.834231 0.753920
vt 0.779134 0.753920
vt 0.788463 0.660883
vt 0.779134 0.660883
vt 0.779134 0.465359
vt 0.825813 0.882773
vt 0.779134 0.882773
vt 0.834231 0.567726
vt 0.834231 0.558397
vt 0.834231 0.660883
vt 0.885900 0.853351
vt 0.896563 0.853351
vt 0.895117 0.862680
vt 0.779134 0.131789
vt 0.779134 0.428596
vt 0.730979 0.428596
vt 0.730979 0.131789
vt 0.660943 0.131789
vt 0.660943 0.428596
vt 0.579685 0.428596
vt 0.579685 0.131789
vt 0.499579 0.428596
vt 0.499579 0.131789
vt 0.432818 0.428596
vt 0.432818 0.131789
vt 0.389567 0.428596
vt 0.389567 0.131789
vt 0.215665 0.928596
vt 0.215665 0.631789
vt 0.252896 0.631789
vt 0.252896 0.928596
vt 0.290127 0.631789
vt 0.290127 0.928596
vt 0.000000 0.428596
vt -0.000000 0.131789
vt 0.048154 0.131789
vt 0.048154 0.428596
vt 0.118191 0.131789
vt 0.118191 0.428596
vt 0.199448 0.131789
vt 0.199448 0.428596
vt 0.279555 0.131789
vt 0.279555 0.428596
vt 0.346316 0.131789
vt 0.346316 0.428596
vt 0.389567 0.131789
vt 0.389567 0.428596
vt 0.290127 0.928596
vt 0.290127 0.631789
vt 0.327359 0.631789
vt 0.327359 0.928596
vt 0.364590 0.928596
vt 0.359602 1.000000
vt 0.327359 1.000000
vt 0.183912 0.560385
vt 0.214751 0.577206
vt 0.194663 0.647178
vt 0.176858 0.637466
vt 0.167222 0.742762
vt 0.711722 0.060385
vt 0.753425 0.060385
vt 0.659111 0.000000
vt 0.683188 0.000000
vt 0.208290 0.671441
vt 0.651069 0.060385
vt 0.624092 0.000000
vt 0.215665 0.706563
vt 0.580698 0.060385
vt 0.583464 0.000000
vt 0.215665 0.747195
vt 0.511323 0.060385
vt 0.543410 0.000000
vt 0.208290 0.787152
vt 0.453507 0.060385
vt 0.510030 0.000000
vt 0.194663 0.820352
vt 0.416050 0.060385
vt 0.214751 0.877151
vt 0.183912 0.914195
vt 0.176858 0.841739
vt 0.252896 1.000000
vt 0.220653 1.000000
vt 0.150532 0.925139
vt 0.157586 0.848058
vt 0.285139 1.000000
vt 0.119694 0.908318
vt 0.139782 0.838346
vt 0.067411 0.500000
vt 0.025709 0.500000
vt 0.120023 0.560385
vt 0.095946 0.560385
vt 0.126154 0.814083
vt 0.128065 0.500000
vt 0.155041 0.560385
vt 0.118780 0.778961
vt 0.198436 0.500000
vt 0.195670 0.560385
vt 0.118780 0.738329
vt 0.267810 0.500000
vt 0.235723 0.560385
vt 0.126154 0.698371
vt 0.325627 0.500000
vt 0.269104 0.560385
vt 0.139782 0.665172
vt 0.363083 0.500000
vt 0.119694 0.608372
vt 0.150532 0.571329
vt 0.157586 0.643785
vt 0.295115 1.000000
vt 0.364590 0.631789
vt 0.327359 0.560385
vt 0.359602 0.560385
vt 0.024135 0.576673
vt 0.055183 0.560385
vt 0.061996 0.645942
vt 0.044070 0.655346
vt 0.070671 0.754883
vt 0.753425 0.500000
vt 0.711722 0.500000
vt 0.000000 0.617939
vt 0.030136 0.679171
vt 0.651069 0.500000
vt 0.659111 0.560385
vt 0.624092 0.560385
vt 0.022314 0.713790
vt 0.580698 0.500000
vt 0.583464 0.560385
vt 0.021796 0.753932
vt 0.511323 0.500000
vt 0.543410 0.560385
vt 0.028661 0.793486
vt 0.453507 0.500000
vt 0.510030 0.560385
vt 0.041862 0.826430
vt 0.416050 0.500000
vt 0.488404 0.560385
vt 0.059391 0.847750
vt 0.220653 0.560385
vt 0.252896 0.560385
vt 0.083906 0.921094
vt 0.050672 0.909925
vt 0.078580 0.854198
vt 0.285139 0.560385
vt 0.114955 0.904806
vt 0.096505 0.844794
vt 0.025709 0.060385
vt 0.067411 0.060385
vt 0.095946 0.000000
vt 0.120023 0.000000
vt 0.110440 0.820969
vt 0.128065 0.060385
vt 0.155041 0.000000
vt 0.118261 0.786351
vt 0.198436 0.060385
vt 0.195670 0.000000
vt 0.118779 0.746209
vt 0.267810 0.060385
vt 0.235723 0.000000
vt 0.111915 0.706655
vt 0.325627 0.060385
vt 0.269104 0.000000
vt 0.098714 0.673710
vt 0.363083 0.060385
vt 0.088418 0.571554
vt 0.118779 0.608480
vt 0.081184 0.652391
vt 0.295115 0.560385
vt 0.364590 0.705334
vt 0.411310 0.560385
vt 0.479289 0.560385
vt 0.479289 0.705334
vt 0.885900 0.615576
vt 0.885900 0.470188
vt 0.902111 0.470188
vt 0.902111 0.615576
vt 0.479289 0.705334
vt 0.479289 0.560385
vt 0.547268 0.560385
vt 0.593988 0.705334
vt 0.885900 0.470188
vt 0.885900 0.319315
vt 0.902111 0.319315
vt 0.902111 0.470188
vt 0.902111 0.730275
vt 0.885900 0.730275
vt 0.885900 0.615576
vt 0.902111 0.615576
vt 0.902111 0.798254
vt 0.885900 0.798254
vt 0.885900 0.730275
vt 0.902111 0.730275
vt 0.593988 0.560385
vt 0.670961 0.607105
vt 0.670961 0.675084
vt 0.593988 0.675084
vt 0.911256 -0.000000
vt 0.911256 0.092951
vt 0.885900 0.111765
vt 0.885900 0.018813
vt 0.808927 -0.000000
vt 0.885900 0.000000
vt 0.885900 0.067979
vt 0.808927 0.114699
vt 0.912064 0.232568
vt 0.912064 0.319315
vt 0.885900 0.302288
vt 0.885900 0.215540
vt 0.779134 -0.000000
vt 0.779134 0.114699
vt 0.700754 0.675084
vt 0.700754 0.607105
vt 0.810186 0.114699
vt 0.878161 0.161419
vt 0.878161 0.229398
vt 0.810186 0.229398
vt 0.804489 0.901586
vt 0.804489 0.994538
vt 0.779134 0.975724
vt 0.779134 0.882773
vt 0.779134 0.229398
vt 0.847109 0.229398
vt 0.847109 0.297377
vt 0.779134 0.344096
vt 0.912064 0.111765
vt 0.912064 0.198512
vt 0.885900 0.128792
vt 0.779134 0.229398
vt 0.779134 0.114699
vt 0.878161 0.229398
vt 0.878161 0.297377
s 1
f 21/1/19 23/2/21 10/3/8 8/4/6
f 27/5/25 29/6/27 24/7/22 20/8/18
f 6/9/4 5/10/4 4/11/3
f 28/12/26 16/13/14 11/14/9 22/15/20
f 9/16/7 12/17/10 18/18/16 14/19/12
f 15/20/13 17/21/15 30/22/28 26/23/24
f 7/24/5 8/25/6 9/16/7
f 13/26/11 14/19/12 15/27/13
f 16/13/14 17/28/15 18/29/16
f 19/30/17 20/31/18 21/32/19
f 25/33/23 26/23/24 27/34/25
f 28/35/26 29/6/27 30/36/28
f 13/26/11 7/24/5 9/16/7 14/19/12
f 8/4/6 10/3/8 12/37/10 9/38/7
f 11/14/9 16/13/14 18/29/16 12/39/10
f 17/21/15 15/20/13 14/40/12 18/41/16
f 25/33/23 13/42/11 15/20/13 26/23/24
f 16/13/14 28/12/26 30/43/28 17/28/15
f 29/44/27 27/34/25 26/23/24 30/22/28
f 19/30/17 25/45/23 27/46/25 20/31/18
f 28/35/26 22/47/20 24/7/22 29/6/27
f 23/2/21 21/1/19 20/48/18 24/49/22
f 7/50/5 19/30/17 21/32/19 8/51/6
f 13/52/11 25/45/23 19/30/17 7/50/5
f 3/53/2 2/54/2 1/55/1
f 3/53/2 5/10/4 6/9/4 2/54/2
f 34/56/32 83/57/81 86/58/84 37/59/35
f 40/60/38 89/61/87 92/62/90 43/63/41
f 43/63/41 92/62/90 95/64/93 46/65/44
f 46/65/44 95/64/93 98/66/96 49/67/47
f 49/67/47 98/66/96 101/68/99 52/69/50
f 52/70/50 101/71/99 104/72/102 56/73/54
f 56/73/54 104/72/102 108/74/106 59/75/57
f 59/76/57 108/77/106 111/78/109 62/79/60
f 62/79/60 111/78/109 114/80/112 65/81/63
f 65/81/63 114/80/112 117/82/115 68/83/66
f 68/83/66 117/82/115 120/84/118 71/85/69
f 71/85/69 120/84/118 123/86/121 74/87/72
f 74/87/72 123/86/121 126/88/124 77/89/75
f 77/90/75 126/91/124 80/92/78 31/93/29
f 37/59/35 86/58/84 89/61/87 40/60/38
f 31/93/29 34/94/32 36/95/34 33/96/31
f 33/97/31 36/98/34 35/99/33 32/100/30
f 32/100/30 35/99/33 55/101/53
f 34/56/32 37/59/35 39/102/37 36/103/34
f 36/103/34 39/102/37 38/104/36 35/105/33
f 35/99/33 38/106/36 55/101/53
f 37/59/35 40/60/38 42/107/40 39/102/37
f 39/102/37 42/107/40 41/108/39 38/104/36
f 38/106/36 41/109/39 55/101/53
f 40/60/38 43/63/41 45/110/43 42/107/40
f 42/107/40 45/110/43 44/111/42 41/108/39
f 41/109/39 44/112/42 55/101/53
f 43/63/41 46/65/44 48/113/46 45/110/43
f 45/110/43 48/113/46 47/114/45 44/111/42
f 44/112/42 47/115/45 55/101/53
f 46/65/44 49/67/47 51/116/49 48/113/46
f 48/113/46 51/116/49 50/117/48 47/114/45
f 47/115/45 50/118/48 55/101/53
f 49/67/47 52/69/50 54/119/52 51/116/49
f 51/120/49 54/121/52 53/122/51 50/118/48
f 50/118/48 53/122/51 55/101/53
f 52/70/50 56/73/54 58/123/56 54/124/52
f 54/121/52 58/125/56 57/126/55 53/122/51
f 53/122/51 57/126/55 55/101/53
f 56/73/54 59/75/57 61/127/59 58/123/56
f 58/125/56 61/128/59 60/129/58 57/126/55
f 57/126/55 60/129/58 55/101/53
f 59/76/57 62/79/60 64/130/62 61/131/59
f 61/131/59 64/130/62 63/132/61 60/133/58
f 60/129/58 63/134/61 55/101/53
f 62/79/60 65/81/63 67/135/65 64/130/62
f 64/130/62 67/135/65 66/136/64 63/132/61
f 63/134/61 66/137/64 55/101/53
f 65/81/63 68/83/66 70/138/68 67/135/65
f 67/135/65 70/138/68 69/139/67 66/136/64
f 66/137/64 69/140/67 55/101/53
f 68/83/66 71/85/69 73/141/71 70/138/68
f 70/138/68 73/141/71 72/142/70 69/139/67
f 69/140/67 72/143/70 55/101/53
f 71/85/69 74/87/72 76/144/74 73/141/71
f 73/141/71 76/144/74 75/145/73 72/142/70
f 72/143/70 75/146/73 55/101/53
f 74/87/72 77/89/75 79/147/77 76/144/74
f 76/148/74 79/149/77 78/150/76 75/146/73
f 75/146/73 78/150/76 55/101/53
f 77/90/75 31/93/29 33/96/31 79/151/77
f 79/149/77 33/97/31 32/100/30 78/150/76
f 78/150/76 32/100/30 55/101/53
f 83/152/81 80/92/78 81/153/79 85/154/83
f 85/155/83 81/156/79 82/157/80 84/158/82
f 84/158/82 82/157/80 107/159/105
f 86/58/84 83/57/81 85/160/83 88/161/86
f 88/162/86 85/155/83 84/158/82 87/163/85
f 87/163/85 84/158/82 107/159/105
f 89/61/87 86/58/84 88/161/86 91/164/89
f 91/164/89 88/161/86 87/165/85 90/166/88
f 90/167/88 87/163/85 107/159/105
f 92/62/90 89/61/87 91/164/89 94/168/92
f 94/168/92 91/164/89 90/166/88 93/169/91
f 93/170/91 90/167/88 107/159/105
f 95/64/93 92/62/90 94/168/92 97/171/95
f 97/171/95 94/168/92 93/169/91 96/172/94
f 96/173/94 93/170/91 107/159/105
f 98/66/96 95/64/93 97/171/95 100/174/98
f 100/174/98 97/171/95 96/172/94 99/175/97
f 99/176/97 96/173/94 107/159/105
f 101/68/99 98/66/96 100/174/98 103/177/101
f 103/177/101 100/174/98 99/175/97 102/178/100
f 102/179/100 99/176/97 107/159/105
f 104/72/102 101/71/99 103/180/101 106/181/104
f 106/182/104 103/183/101 102/179/100 105/184/103
f 105/184/103 102/179/100 107/159/105
f 108/74/106 104/72/102 106/181/104 110/185/108
f 110/186/108 106/182/104 105/184/103 109/187/107
f 109/187/107 105/184/103 107/159/105
f 111/78/109 108/77/106 110/188/108 113/189/111
f 113/189/111 110/188/108 109/190/107 112/191/110
f 112/192/110 109/187/107 107/159/105
f 114/80/112 111/78/109 113/189/111 116/193/114
f 116/193/114 113/189/111 112/191/110 115/194/113
f 115/195/113 112/192/110 107/159/105
f 117/82/115 114/80/112 116/193/114 119/196/117
f 119/196/117 116/193/114 115/194/113 118/197/116
f 118/198/116 115/195/113 107/159/105
f 120/84/118 117/82/115 119/196/117 122/199/120
f 122/199/120 119/196/117 118/197/116 121/200/119
f 121/201/119 118/198/116 107/159/105
f 123/86/121 120/84/118 122/199/120 125/202/123
f 125/202/123 122/199/120 121/200/119 124/203/122
f 124/204/122 121/201/119 107/159/105
f 126/88/124 123/86/121 125/202/123 128/205/126
f 128/206/126 125/207/123 124/204/122 127/208/125
f 127/208/125 124/204/122 107/159/105
f 80/92/78 126/91/124 128/209/126 81/153/79
f 81/156/79 128/206/126 127/208/125 82/157/80
f 82/157/80 127/208/125 107/159/105
f 31/93/29 80/92/78 83/152/81 34/94/32
f 129/210/127 130/211/128 132/212/130 131/213/129
f 131/214/129 132/215/130 136/216/134 135/217/133
f 135/218/133 136/219/134 134/220/132 133/221/131
f 133/222/131 134/223/132 130/224/128 129/225/127
f 131/226/129 135/227/133 133/228/131 129/229/127
f 136/230/134 132/231/130 130/232/128 134/233/132
f 137/234/135 138/235/136 140/236/138 139/237/137
f 139/238/137 140/239/138 144/240/142 143/241/141
f 143/242/141 144/243/142 142/244/140 141/245/139
f 141/246/139 142/247/140 138/248/136 137/249/135
f 139/250/137 143/242/141 141/245/139 137/251/135
f 144/252/142 140/236/138 138/235/136 142/253/140
f 145/254/143 146/255/144 148/256/146 147/257/145
f 147/258/145 148/259/146 152/260/150 151/261/149
f 151/262/149 152/263/150 150/264/148 149/265/147
f 149/266/147 150/267/148 146/249/144 145/268/143
f 147/257/145 151/269/149 149/270/147 145/254/143
f 152/263/150 148/271/146 146/272/144 150/264/148
