# Blender 4.3.2
# www.blender.org
o Sphere
v -0.145092 -1.640197 -0.312289
v 0.438815 -1.479405 -0.252525
v 0.061962 -1.693252 0.206086
v -0.314597 -1.475990 0.682795
v -0.528940 -1.568635 0.321810
v 0.336402 -1.716456 -1.413148
v 0.026914 -1.780952 -0.983123
v -0.276543 -1.733338 -1.006486
v -0.577986 -1.487330 -1.031713
v -0.308188 -1.667949 -1.594474
v 0.072275 -1.568550 -1.844766
v -0.491239 -1.295932 1.028262
v -0.828629 -0.913719 1.149754
v -0.750588 -1.484439 0.856201
v -1.205770 -1.057327 0.863058
v -1.170200 -0.599067 0.758761
v -0.835788 -1.558107 0.495230
v -1.280255 -0.920560 0.304319
v -1.153633 -1.368992 0.464673
v -0.873327 -1.284588 0.069053
v 0.185642 -0.692418 -2.581812
v -0.069394 -1.426876 -2.200833
v 0.379246 -1.163279 -2.499082
v 0.777584 -0.799464 -2.280105
v 0.533607 -1.429500 -2.045058
v 0.865323 -1.010913 -1.738622
v 0.536595 -1.434869 -1.638892
v -0.387297 -1.301256 -1.869661
v -0.335268 -0.977740 -2.337666
v -1.152617 -1.100524 -0.437478
v -1.117893 -0.489637 -0.770844
v -0.875230 -0.632628 -1.302027
v -1.119491 -1.134419 -0.938635
v -0.729387 -1.193649 -1.291717
v -0.755229 -1.495735 -0.693562
v 1.202972 -0.684946 -1.062556
v 0.747184 -1.266601 -1.300148
v 0.929691 -0.222845 -0.950730
v 1.250224 -1.124789 -0.811140
v 0.885134 -1.470587 -0.966873
v 1.141368 -0.313558 -0.668700
v 0.964130 -1.464763 -0.526562
v 1.286534 -0.635370 -0.435720
v 1.114700 -1.069306 -0.175796
v 1.054844 -0.795983 0.800810
v 0.547928 -1.287048 0.847679
v 0.914296 -0.065402 1.154630
v 0.917901 -0.403185 1.440552
v 0.888224 -1.007203 1.226787
v 0.701795 -0.705404 1.596440
v 0.054547 -0.693655 1.642470
v 0.348562 -0.110656 1.572026
v -0.031930 -1.016553 1.427723
v 0.447739 -1.196575 1.332918
v -0.082193 -0.104577 1.419471
v -0.441077 -0.612530 1.112177
v -0.361879 -0.904354 1.136893
v -0.125166 -0.311474 -2.333174
v 0.187815 0.346173 -2.161490
v 0.335273 -0.260336 -2.298824
v 0.656252 0.430459 -1.754824
v 0.696194 -0.260953 -2.015849
v 0.844226 -0.536143 -1.746190
v 0.633169 0.523574 -1.051179
v 0.944916 0.032539 -1.260394
v 0.153380 0.564483 -0.650392
v 0.246689 0.801720 -1.262378
v -0.332526 0.751342 -1.220256
v -0.890504 -0.232804 -0.972225
v -0.762579 0.425981 -1.161831
v -0.948611 0.041843 -1.455945
v -0.775784 -0.349603 -1.911344
v -0.495799 0.388824 -1.968412
v -0.399253 -0.475680 -2.195046
v -0.027016 0.742397 -1.737870
v 0.734776 0.459606 -0.194385
v 0.738761 -1.007993 0.065275
v 0.995192 -0.000153 0.293119
v 0.943291 -0.126721 0.646760
v 0.336528 0.691080 0.568291
v 0.142298 0.543744 0.902452
v 0.246101 0.235117 1.138092
v 0.168273 0.838483 -0.022404
v -0.402765 0.790695 0.273083
v -0.587006 0.351628 0.850722
v -0.899175 0.394664 0.024653
v -1.029492 -0.500881 -0.228042
v -0.552900 0.381252 -0.684694
v -0.344766 0.720250 -0.329190
v 0.578205 0.254499 0.913620
v -0.357691 -0.169618 1.164766
v 0.797833 -0.860279 0.358245
v 0.726714 -0.004854 -0.676000
v 0.938853 -0.186852 -0.379291
v 0.834206 -0.708281 -1.397198
v 0.944150 -0.689123 -0.002027
v -0.795370 -0.141509 -0.649007
v -0.808527 -0.389525 0.892616
v -0.935619 -0.861863 -0.054687
v -1.074647 -0.425826 0.324921
v -0.681054 -0.889947 -1.370895
v 0.692752 -1.097510 -1.422369
v -0.547030 -0.892359 -1.750862
v 0.425123 -1.561624 -0.856379
v -0.301990 -1.508219 -0.737932
v 0.018244 -1.396124 -0.605031
v -0.436351 -1.489561 -0.449730
v 0.659014 -1.304167 -0.063195
v -0.758327 -1.353127 -0.215225
v 0.449705 -1.293035 0.529818
v 0.042720 -1.283682 0.870532
v -0.211376 -1.164218 0.917083
vn -0.0558 -0.9364 -0.3465
vn 0.2669 -0.9588 0.0972
vn 0.2247 -0.9561 0.1880
vn 0.1572 -0.8677 0.4716
vn -0.2264 -0.9739 -0.0127
vn 0.4165 -0.8919 -0.1761
vn 0.0670 -0.9459 0.3174
vn -0.3828 -0.8885 0.2531
vn -0.6028 -0.7909 -0.1053
vn -0.4414 -0.8125 -0.3808
vn -0.0082 -0.9199 -0.3920
vn 0.1863 -0.5628 0.8053
vn -0.3347 -0.0202 0.9421
vn -0.2056 -0.8113 0.5473
vn -0.8162 -0.2145 0.5365
vn -0.7967 0.4664 0.3844
vn -0.2962 -0.9536 -0.0544
vn -0.9385 -0.0067 -0.3452
vn -0.7574 -0.6448 -0.1031
vn -0.7062 -0.5760 -0.4117
vn 0.0057 0.1521 -0.9883
vn -0.3201 -0.7756 -0.5440
vn 0.2549 -0.4557 -0.8528
vn 0.8111 0.0030 -0.5849
vn 0.5314 -0.7874 -0.3123
vn 0.9486 -0.3157 0.0208
vn 0.6870 -0.7107 -0.1516
vn -0.7469 -0.5006 -0.4377
vn -0.6857 -0.2139 -0.6958
vn -0.9004 -0.3491 0.2595
vn -0.9259 0.3591 -0.1176
vn -0.9019 -0.1415 -0.4081
vn -0.8533 -0.3874 -0.3489
vn -0.7702 -0.4085 -0.4899
vn -0.4081 -0.9128 -0.0184
vn 0.8399 0.1507 -0.5214
vn 0.7286 -0.4779 -0.4907
vn 0.8867 0.4515 -0.0992
vn 0.9066 -0.3700 -0.2028
vn 0.4364 -0.8213 -0.3674
vn 0.7680 0.6376 -0.0604
vn 0.5166 -0.8319 0.2025
vn 0.9404 0.1995 0.2752
vn 0.7422 -0.3454 0.5743
vn 0.9478 -0.2834 -0.1461
vn 0.3820 -0.9242 0.0035
vn 0.7654 0.5588 0.3192
vn 0.7646 0.1870 0.6168
vn 0.7347 -0.5778 0.3555
vn 0.3993 -0.2163 0.8909
vn -0.3298 -0.1497 0.9321
vn 0.0690 0.5172 0.8531
vn -0.4111 -0.6184 0.6698
vn 0.1275 -0.8216 0.5556
vn -0.5194 0.5010 0.6922
vn -0.4824 0.0985 0.8704
vn -0.3244 -0.3315 0.8859
vn -0.3061 0.2791 -0.9102
vn 0.1852 0.5201 -0.8338
vn 0.3483 0.3810 -0.8565
vn 0.6957 0.5789 -0.4253
vn 0.7830 0.2963 -0.5469
vn 0.9837 0.0733 -0.1640
vn 0.6852 0.6756 0.2723
vn 0.9698 0.2437 -0.0126
vn 0.2428 0.9698 -0.0249
vn 0.2628 0.9631 0.0582
vn -0.3686 0.9250 0.0922
vn -0.9389 0.3438 0.0165
vn -0.7931 0.5988 0.1115
vn -0.9601 0.2303 -0.1587
vn -0.8052 -0.1172 -0.5813
vn -0.5396 0.5471 -0.6400
vn -0.6591 0.0231 -0.7517
vn -0.0465 0.9035 -0.4261
vn 0.7279 0.6517 -0.2134
vn 0.7495 -0.4597 0.4764
vn 0.9585 0.2643 0.1071
vn 0.9605 0.2724 0.0561
vn 0.3658 0.8654 0.3424
vn 0.0158 0.8034 0.5952
vn 0.0574 0.7132 0.6986
vn 0.2264 0.9687 -0.1016
vn -0.3525 0.9124 0.2079
vn -0.5584 0.5540 0.6174
vn -0.8520 0.5222 -0.0379
vn -0.9895 0.1401 0.0354
vn -0.6999 0.7137 -0.0294
vn -0.3115 0.8792 -0.3605
vn 0.5730 0.7110 0.4076
vn -0.5536 0.2643 0.7897
vn 0.8860 -0.4601 -0.0582
vn 0.8163 0.5775 -0.0142
vn 0.8845 0.4665 0.0007
vn 0.9553 -0.0801 -0.2845
vn 0.8920 -0.0756 0.4458
vn -0.8821 0.4650 -0.0752
vn -0.6324 0.3762 0.6772
vn -0.9813 -0.1789 -0.0711
vn -0.9470 0.3212 -0.0000
vn -0.8006 -0.2263 -0.5549
vn 0.9163 -0.3357 -0.2185
vn -0.8716 -0.2775 -0.4041
vn 0.2284 -0.9606 0.1585
vn -0.0729 -0.9281 0.3651
vn 0.0436 -0.9936 0.1043
vn -0.1743 -0.9841 -0.0342
vn 0.5460 -0.7074 0.4489
vn -0.6241 -0.7757 0.0937
vn 0.5460 -0.8252 0.1450
vn -0.0306 -0.9117 0.4096
vn 0.0068 -0.7251 0.6886
vt 0.451231 0.327461
vt 0.459430 0.263589
vt 0.528511 0.299194
vt 0.483392 0.171488
vt 0.517145 0.137628
vt 0.558174 0.209424
vt 0.479702 0.218844
vt 0.095378 0.820432
vt 0.096687 0.872898
vt 0.009081 0.848898
vt 0.452823 0.826652
vt 0.400722 0.913235
vt 0.364280 0.809862
vt 0.329317 0.890568
vt 0.530026 0.473537
vt 0.571695 0.534841
vt 0.487936 0.520999
vt 0.534577 0.604096
vt 0.701594 0.469239
vt 0.691988 0.496681
vt 0.639090 0.460704
vt 0.657163 0.572556
vt 0.603217 0.507415
vt 0.506906 0.845673
vt 0.488765 0.773384
vt 0.562456 0.803248
vt 0.435932 0.596250
vt 0.492788 0.605012
vt 0.395990 0.549488
vt 0.145852 0.882660
vt 0.159798 0.842068
vt 0.167336 0.410083
vt 0.218223 0.385571
vt 0.233628 0.465317
vt 0.239982 0.832367
vt 0.194060 0.889752
vt 0.542087 0.357107
vt 0.578896 0.429430
vt 0.503746 0.420424
vt 0.737793 0.859311
vt 0.798545 0.930168
vt 0.708119 0.933176
vt 0.614586 0.327461
vt 0.697866 0.336270
vt 0.618173 0.406078
vt 0.761822 0.391314
vt 0.707693 0.422642
vt 0.578896 0.438575
vt 0.398977 0.467686
vt 0.436472 0.385824
vt 0.451577 0.467154
vt 0.632410 0.940068
vt 0.669101 0.861516
vt 0.481862 0.327461
vt 0.411814 0.647312
vt 0.470263 0.632174
vt 0.449818 0.674121
vt 0.237351 0.173907
vt 0.329317 0.176501
vt 0.314393 0.242436
vt 0.334304 0.524622
vt 0.339689 0.603921
vt 0.239982 0.833026
vt 0.294601 0.809392
vt 0.294601 0.868889
vt 0.806122 0.494517
vt 0.770817 0.556380
vt 0.724925 0.614086
vt 0.695393 0.555099
vt 0.866201 0.523118
vt 0.850948 0.575674
vt 0.875314 0.810671
vt 0.872956 0.865456
vt 0.820029 0.818859
vt 0.800935 0.636826
vt 0.257611 0.601243
vt 0.311883 0.649251
vt 0.239982 0.680480
vt 0.322216 0.697621
vt 0.287928 0.753425
vt 0.603182 0.189368
vt 0.006259 0.722628
vt -0.000000 0.639823
vt 0.051583 0.685427
vt 0.588107 0.000000
vt 0.645002 0.030519
vt 0.578627 0.094196
vt 0.732143 0.158444
vt 0.670611 0.201031
vt 0.648953 0.141059
vt 0.040389 0.559471
vt 0.060651 0.595870
vt 0.773378 0.198568
vt 0.740595 0.274646
vt 0.135030 0.563312
vt 0.145390 0.640964
vt 0.785881 0.268947
vt 0.071343 0.759383
vt 0.126901 0.696697
vt 0.070600 0.946451
vt 0.045964 0.889752
vt 0.091890 0.889752
vt 0.077443 0.500037
vt 0.173011 0.463754
vt 0.145105 0.559471
vt 0.020579 0.461188
vt 0.106996 0.456695
vt 0.207988 0.481917
vt 0.198834 0.539436
vt 0.279407 0.934468
vt 0.280537 0.868889
vt 0.322259 0.934468
vt 0.723196 0.771749
vt 0.794863 0.841412
vt 0.700878 0.685211
vt 0.798545 0.734880
vt 0.861890 0.327461
vt 0.861768 0.420749
vt 0.769437 0.336801
vt 0.798545 0.663920
vt 0.902035 0.649684
vt 0.869195 0.714477
vt 0.759106 0.448813
vt 0.846780 0.478250
vt 0.798545 0.763392
vt 0.960668 0.726719
vt 0.023638 0.199518
vt 0.037578 0.094570
vt 0.086762 0.173759
vt 0.103232 0.098242
vt 0.172477 0.065779
vt 0.227628 0.025928
vt 0.256784 0.116607
vt 0.379176 0.523127
vt 0.113598 -0.000000
vt 0.663211 0.636826
vt 0.748311 0.642800
vt 0.578896 0.821633
vt 0.625632 0.740400
vt 0.629280 0.866063
vt 1.000000 0.412233
vt 0.960977 0.508502
vt 0.915370 0.428061
vt 0.372190 0.000000
vt 0.466804 0.019513
vt 0.382637 0.072702
vt 0.521452 0.025199
vt 0.791255 0.091313
vt 0.646007 0.085989
vt 0.807824 0.150021
vt 0.870877 0.180898
vt 0.809122 0.012153
vt 0.876420 0.070881
vt 0.279407 0.868889
vt 0.279407 0.958442
vt 0.239982 0.898255
vt 0.055660 0.383777
vt 0.200008 0.323124
vt -0.000000 0.294635
vt 0.086173 0.256443
vt 0.221150 0.252215
vt 0.998741 0.327461
vt 0.942787 0.346754
vt 0.021022 0.217308
vt 0.866201 0.333009
vt 0.195185 0.145253
vt 0.329317 0.076771
vt 0.388578 0.383237
vt 0.329317 0.424596
vt 0.261197 0.294065
vt 0.436063 0.785562
vt 0.488765 0.776696
vt 0.400538 0.296912
vt -0.000000 0.754068
vt 0.112300 0.763132
vt 0.445846 0.888492
vt 0.441962 0.950731
vt 0.574813 0.862305
vt 0.574813 0.760825
vt 0.528841 0.738513
vt 0.565124 0.712336
vt 0.294601 0.792356
vt 0.320224 0.753425
vt 0.320224 0.831719
vt 0.146992 0.790080
vt 0.157590 0.731730
vt 0.181504 0.709464
vt 0.216587 0.767581
vt 0.280027 0.416638
vt 0.365997 0.759258
vt 0.329317 0.733404
vt 0.404873 0.720533
vt 0.278775 0.331717
vt 0.329317 0.376578
vt 0.467551 0.707012
vt 0.876420 0.169083
vt 0.918629 0.115128
vt 0.918629 0.202512
vt 0.733741 0.986704
vt 0.556341 0.932280
vt 0.488765 0.873610
vt 0.556341 0.862305
vt 0.509881 0.707012
vt -0.000000 0.930717
vt 0.045964 0.889752
vt 0.045964 0.950666
vt 0.396989 0.707012
vt 0.329317 0.672560
vt 0.169942 0.189693
vt 0.876420 0.017343
vt 0.907386 -0.000000
vt 0.927452 0.076165
vt 0.819501 0.862042
vt 0.813880 0.924407
vt 0.841982 0.989611
vt 0.889931 0.955495
vt 0.322216 0.602456
vt 0.306828 0.559471
vt 0.927719 0.609540
vt 0.866201 0.572198
vt 0.927719 0.529423
vt 0.269663 0.753425
vt 0.646007 0.115749
vt 0.646008 0.261195
vt 0.646209 0.309566
vt 0.051830 0.538453
vt 0.968299 0.636826
vt 0.460617 0.119943
vt 0.705827 -0.000000
vt 0.866201 0.529423
vt 0.876420 0.115128
vt 0.924486 0.253041
vt 0.876420 0.277954
vt 0.876420 0.202511
s 1
f 1/1/1 2/2/2 3/3/3
f 77/4/77 92/5/92 110/6/110
f 108/7/108 110/6/110 2/2/2
f 4/8/4 5/9/5 3/10/3
f 109/11/109 1/12/1 5/13/5
f 3/14/3 5/13/5 1/12/1
f 11/15/11 6/16/6 10/17/10
f 7/18/7 10/17/10 6/16/6
f 102/19/102 37/20/37 27/21/27
f 37/20/37 104/22/104 6/23/6
f 104/24/104 106/25/106 7/26/7
f 9/27/9 10/17/10 8/28/8
f 7/18/7 8/28/8 10/17/10
f 9/27/9 34/29/34 10/17/10
f 17/30/17 5/9/5 4/8/4
f 17/30/17 4/8/4 14/31/14
f 98/32/98 16/33/16 13/34/13
f 14/31/14 15/35/15 19/36/19
f 23/37/23 25/38/25 22/39/22
f 11/15/11 22/39/22 25/38/25
f 60/40/60 24/41/24 21/42/21
f 23/43/23 24/44/24 25/45/25
f 24/44/24 63/46/63 26/47/26
f 11/48/11 25/45/25 27/21/27
f 25/45/25 26/47/26 27/21/27
f 26/47/26 102/19/102 27/21/27
f 103/49/103 29/50/29 28/51/28
f 29/52/29 58/53/58 21/42/21
f 21/54/21 23/37/23 29/50/29
f 35/55/35 105/56/105 107/57/107
f 31/58/31 33/59/33 30/60/30
f 32/61/32 34/29/34 33/62/33
f 104/63/104 40/64/40 42/65/42
f 36/66/36 39/67/39 37/20/37
f 39/67/39 42/68/42 40/69/40
f 41/70/41 43/71/43 36/66/36
f 93/72/93 94/73/94 38/74/38
f 43/71/43 44/75/44 39/67/39
f 44/76/44 108/77/108 42/78/42
f 108/77/108 2/79/2 42/78/42
f 104/80/104 42/78/42 2/79/2
f 110/6/110 92/5/92 46/81/46
f 46/82/46 49/83/49 54/84/54
f 47/85/47 48/86/48 45/87/45
f 90/88/90 47/89/47 79/90/79
f 48/91/48 50/92/50 49/83/49
f 50/92/50 54/84/54 49/83/49
f 47/89/47 82/93/82 52/94/52
f 50/92/50 52/95/52 51/96/51
f 52/94/52 82/93/82 55/97/55
f 46/82/46 54/84/54 111/98/111
f 53/99/53 111/98/111 54/84/54
f 53/100/53 57/101/57 112/102/112
f 55/103/55 56/104/56 51/105/51
f 82/106/82 91/107/91 55/103/55
f 51/105/51 57/108/57 53/109/53
f 46/110/46 111/111/111 110/112/110
f 59/113/59 60/40/60 58/53/58
f 59/113/59 62/114/62 60/40/60
f 75/115/75 61/116/61 59/113/59
f 61/117/61 65/118/65 62/119/62
f 61/120/61 67/121/67 64/122/64
f 63/46/63 65/118/65 95/123/95
f 38/124/38 95/123/95 65/118/65
f 64/122/64 93/72/93 65/125/65
f 93/72/93 38/74/38 65/125/65
f 67/121/67 66/126/66 64/122/64
f 64/122/64 66/126/66 93/72/93
f 66/127/66 68/128/68 88/129/88
f 68/128/68 70/130/70 88/129/88
f 71/131/71 72/132/72 32/133/32
f 32/61/32 103/49/103 101/134/101
f 70/130/70 68/128/68 73/135/73
f 68/136/68 67/137/67 75/115/75
f 72/138/72 73/139/73 74/140/74
f 73/139/73 58/53/58 74/140/74
f 73/139/73 75/115/75 59/113/59
f 83/141/83 76/142/76 66/143/66
f 76/144/76 78/145/78 94/146/94
f 78/145/78 79/147/79 92/5/92
f 80/148/80 90/88/90 78/149/78
f 81/150/81 85/151/85 82/93/82
f 80/148/80 83/152/83 84/153/84
f 80/154/80 85/155/85 81/156/81
f 91/107/91 85/157/85 98/32/98
f 98/32/98 85/157/85 100/158/100
f 84/159/84 86/160/86 85/157/85
f 100/158/100 86/160/86 87/161/87
f 84/162/84 83/141/83 89/163/89
f 84/159/84 89/164/89 86/160/86
f 88/165/88 89/163/89 66/143/66
f 88/129/88 70/130/70 69/166/69
f 79/147/79 45/87/45 92/5/92
f 82/106/82 85/157/85 91/107/91
f 93/167/93 76/144/76 94/146/94
f 74/168/74 103/49/103 72/169/72
f 102/19/102 95/123/95 37/20/37
f 99/170/99 87/161/87 30/60/30
f 20/171/20 99/172/99 109/11/109
f 5/13/5 20/171/20 109/11/109
f 1/1/1 106/173/106 2/2/2
f 2/2/2 110/6/110 3/3/3
f 110/6/110 108/7/108 77/4/77
f 4/8/4 110/174/110 111/98/111
f 110/174/110 4/8/4 3/10/3
f 112/175/112 4/8/4 111/98/111
f 109/11/109 107/176/107 1/12/1
f 1/12/1 107/176/107 106/177/106
f 6/23/6 11/48/11 27/21/27
f 6/23/6 27/21/27 37/20/37
f 6/178/6 104/24/104 7/26/7
f 8/179/8 7/26/7 105/180/105
f 7/26/7 106/25/106 105/180/105
f 8/179/8 105/180/105 9/181/9
f 101/182/101 103/183/103 34/184/34
f 28/51/28 34/29/34 103/49/103
f 34/29/34 28/51/28 10/17/10
f 10/17/10 28/51/28 11/15/11
f 12/185/12 4/8/4 112/175/112
f 14/31/14 4/8/4 12/185/12
f 12/185/12 112/175/112 57/186/57
f 57/186/57 56/187/56 13/188/13
f 57/186/57 13/188/13 12/185/12
f 56/104/56 98/32/98 13/34/13
f 14/31/14 12/185/12 13/188/13
f 13/188/13 15/35/15 14/31/14
f 13/34/13 16/33/16 15/189/15
f 17/190/17 14/191/14 19/192/19
f 16/33/16 98/32/98 100/158/100
f 15/189/15 18/193/18 19/194/19
f 15/189/15 16/33/16 18/193/18
f 16/33/16 100/158/100 18/193/18
f 19/192/19 18/195/18 20/171/20
f 18/196/18 100/197/100 99/198/99
f 19/192/19 20/171/20 17/190/17
f 18/195/18 99/172/99 20/171/20
f 17/190/17 20/171/20 5/13/5
f 60/40/60 62/114/62 24/41/24
f 23/199/23 21/42/21 24/41/24
f 25/45/25 24/44/24 26/47/26
f 63/46/63 24/44/24 62/119/62
f 26/47/26 95/123/95 102/19/102
f 26/47/26 63/46/63 95/123/95
f 28/51/28 22/39/22 11/15/11
f 28/51/28 29/50/29 22/39/22
f 103/200/103 74/201/74 29/202/29
f 74/140/74 58/53/58 29/52/29
f 58/53/58 60/40/60 21/42/21
f 22/39/22 29/50/29 23/37/23
f 35/55/35 9/27/9 105/56/105
f 105/180/105 106/25/106 107/203/107
f 107/204/107 109/205/109 35/206/35
f 109/207/109 30/208/30 35/55/35
f 31/58/31 87/161/87 97/209/97
f 30/208/30 33/62/33 35/55/35
f 30/60/30 87/161/87 31/58/31
f 33/59/33 31/58/31 32/133/32
f 31/58/31 97/209/97 69/166/69
f 31/58/31 69/166/69 32/133/32
f 33/62/33 34/29/34 35/55/35
f 35/55/35 34/29/34 9/27/9
f 34/29/34 32/61/32 101/134/101
f 95/123/95 36/66/36 37/20/37
f 37/20/37 39/67/39 40/69/40
f 38/210/38 41/211/41 36/212/36
f 41/213/41 38/74/38 94/73/94
f 36/66/36 43/71/43 39/67/39
f 42/68/42 39/67/39 44/75/44
f 41/213/41 94/73/94 43/214/43
f 44/215/44 43/214/43 96/216/96
f 96/216/96 43/214/43 94/73/94
f 108/77/108 44/76/44 77/217/77
f 44/76/44 96/218/96 77/217/77
f 2/219/2 106/220/106 104/221/104
f 104/63/104 37/222/37 40/64/40
f 92/5/92 45/87/45 46/81/46
f 79/147/79 47/85/47 45/87/45
f 46/81/46 45/87/45 49/223/49
f 45/87/45 48/86/48 49/223/49
f 90/88/90 82/93/82 47/89/47
f 47/89/47 52/94/52 48/224/48
f 50/225/50 48/224/48 52/94/52
f 54/84/54 50/92/50 51/96/51
f 54/84/54 51/96/51 53/99/53
f 51/105/51 52/226/52 55/103/55
f 55/103/55 91/107/91 56/104/56
f 53/99/53 112/175/112 111/98/111
f 51/105/51 56/104/56 57/108/57
f 59/113/59 61/116/61 62/114/62
f 75/115/75 67/137/67 61/116/61
f 63/46/63 62/119/62 65/118/65
f 61/120/61 64/122/64 65/125/65
f 66/126/66 67/121/67 68/227/68
f 69/166/69 70/130/70 71/131/71
f 70/130/70 73/135/73 71/131/71
f 32/61/32 72/169/72 103/49/103
f 72/132/72 71/131/71 73/135/73
f 68/136/68 75/115/75 73/139/73
f 73/139/73 59/113/59 58/53/58
f 89/163/89 83/141/83 66/143/66
f 96/228/96 78/145/78 92/5/92
f 76/229/76 80/148/80 78/149/78
f 77/4/77 96/228/96 92/5/92
f 76/229/76 83/152/83 80/148/80
f 78/149/78 90/88/90 79/90/79
f 80/148/80 81/150/81 90/88/90
f 80/148/80 84/153/84 85/151/85
f 56/104/56 91/107/91 98/32/98
f 100/158/100 85/157/85 86/160/86
f 97/209/97 87/161/87 86/160/86
f 86/160/86 88/129/88 97/209/97
f 86/160/86 89/164/89 88/129/88
f 69/166/69 97/209/97 88/129/88
f 93/230/93 66/143/66 76/142/76
f 82/93/82 90/88/90 81/150/81
f 96/228/96 94/146/94 78/145/78
f 95/231/95 38/210/38 36/212/36
f 32/133/32 69/166/69 71/131/71
f 30/232/30 109/233/109 99/234/99
f 99/170/99 100/158/100 87/161/87
