v 300 388.2677415 -137.103367
v 300 398.7606695 -126.776839
v 300 388.2677415 -126.444039
v 300 398.7606695 172.352505
v 300 388.2677415 182.678521
v 300 388.2677415 172.019193
v 186.643712 388.2677415 136.310265
v 193.975552 398.7606695 128.978425
v 150.601472 398.7606695 22.787577
v 140.275456 388.2677415 22.787577
v 194.212096 388.2677415 128.741881
v 150.934784 388.2677415 22.787577
v 186.643712 388.2677415 -90.735111
v 193.975552 398.7606695 -83.403271
v 194.212096 388.2677415 -83.166727
v 300 228.3767975 -190.400519
v 300 305.3242535 -173.745159
v 300 305.3242535 219.320313
v 300 228.3767975 235.975673
v 148.802816 228.3767975 174.151161
v 160.627968 305.3242535 162.326009
v 103.633664 305.3242535 22.787577
v 86.978304 228.3767975 22.787577
v 148.802816 228.3767975 -128.576007
v 160.627968 305.3242535 -116.750343
v 300 148.4315815 -137.103367
v 300 173.4146215 -163.751943
v 300 173.4146215 209.327097
v 300 148.4315815 182.678521
v 186.643712 148.4315815 136.310265
v 167.723264 173.4146215 155.230713
v 113.62688 173.4146215 22.787577
v 140.275456 148.4315815 22.787577
v 186.643712 148.4315815 -90.735111
v 167.723264 173.4146215 -109.655559
v 300 366.2829735 302.597113
v 300 324.3117735 342.569465
v 300 372.2790055 182.678521
v 300.1664 324.3117735 310.591481
v 300.1664 345.2971175 279.945721
v 300.1664 348.2953895 193.337849
v 276.182784 324.3117735 326.580729
v 276.182784 355.7900455 291.271161
v 276.182784 360.2869415 188.008441
v 300 255.8583975 313.922553
v 300 186.7660455 212.957177
v 300.1664 276.3440295 293.270009
v 276.182784 202.7552935 218.287097
v 276.182784 266.1009575 303.596025
v 300 286.3372455 -263.683591
v 300 388.2677415 -328.972295
v 300 196.3988135 -158.422023
v 300 388.2677415 -265.016327
v 300 324.3117735 -231.705607
v 300 284.3389095 -158.422023
v 280.179968 388.2677415 -296.994311
v 263.790848 305.3242535 -247.694343
v 247.40224 240.3688615 -158.422023
v 300 396.5124775 -342.629895
v 300 388.2677415 -318.312967
v 300 388.2677415 -275.675655
v 300 394.2637735 -278.340103
v 288.174336 388.2677415 -296.994311
v 284.177152 395.3881255 -310.484999
v 300 468.2134695 22.787577
v 300 420.2462375 1.46892100000003
v 300 450.2258855 -11.855367
v 300 450.2258855 57.430521
v 300 420.2462375 44.106233
v 285.030144 420.2462375 37.923833
v 275.539712 450.2258855 47.414265
v 265.523456 450.2258855 22.787577
v 278.847232 420.2462375 22.787577
v 285.030144 420.2462375 7.65132100000003
v 275.539712 450.2258855 -1.83911099999997
v 300 388.2677415 -115.784711
v 300 404.2569895 -65.152519
v 300 404.2569895 110.727673
v 300 388.2677415 161.359865
v 201.779968 388.2677415 121.174009
v 237.729024 404.2569895 85.224953
v 212.226304 404.2569895 22.787577
v 161.594112 388.2677415 22.787577
v 201.779968 388.2677415 -75.598343
v 237.729024 404.2569895 -39.649799
v 202.962688 137.4389415 -74.416135
v 163.259648 137.4389415 22.787577
v 300 132.4423335 22.787577
v 300 137.4389415 -114.119175
v 202.962688 137.4389415 119.991289
v 300 137.4389415 159.694329
v 300 323.5473575 -276.050439
v 300 338.2683815 -249.891335
v 291.724032 330.9078695 -262.970887
v 413.356288 388.2677415 136.310265
v 406.024448 398.7606695 128.978425
v 449.398528 398.7606695 22.787577
v 459.724544 388.2677415 22.787577
v 405.787904 388.2677415 128.741881
v 449.065216 388.2677415 22.787577
v 413.356288 388.2677415 -90.735111
v 406.024448 398.7606695 -83.403271
v 405.787904 388.2677415 -83.166727
v 451.197184 228.3767975 174.151161
v 439.372032 305.3242535 162.326009
v 496.366336 305.3242535 22.787577
v 513.021696 228.3767975 22.787577
v 451.197184 228.3767975 -128.576007
v 439.372032 305.3242535 -116.750343
v 413.356288 148.4315815 136.310265
v 432.276736 173.4146215 155.230713
v 486.37312 173.4146215 22.787577
v 459.724544 148.4315815 22.787577
v 413.356288 148.4315815 -90.735111
v 432.276736 173.4146215 -109.655559
v 299.8336 324.3117735 310.591481
v 299.8336 345.2971175 279.945721
v 299.8336 348.2953895 193.337849
v 323.817216 324.3117735 326.580729
v 323.817216 355.7900455 291.271161
v 323.817216 360.2869415 188.008441
v 299.8336 276.3440295 293.270009
v 323.817216 202.7552935 218.287097
v 323.817216 266.1009575 303.596025
v 319.820032 388.2677415 -296.994311
v 336.209152 305.3242535 -247.694343
v 352.59776 240.3688615 -158.422023
v 311.825664 388.2677415 -296.994311
v 315.822848 395.3881255 -310.484999
v 314.969856 420.2462375 37.923833
v 324.460288 450.2258855 47.414265
v 334.476544 450.2258855 22.787577
v 321.152768 420.2462375 22.787577
v 314.969856 420.2462375 7.65132100000003
v 324.460288 450.2258855 -1.83911099999997
v 398.220032 388.2677415 121.174009
v 362.270976 404.2569895 85.224953
v 387.773696 404.2569895 22.787577
v 438.405888 388.2677415 22.787577
v 398.220032 388.2677415 -75.598343
v 362.270976 404.2569895 -39.649799
v 397.037312 137.4389415 -74.416135
v 436.740352 137.4389415 22.787577
v 397.037312 137.4389415 119.991289
v 308.275968 330.9078695 -262.970887
vn 0 0.5426 -0.84
vn 0 0.99 0.1414
vn 0 0.6429 0.766
vn 0 0.99 -0.1414
vn 0 0.5426 0.84
vn 0 0.6429 -0.766
vn -0.5937 0.5435 0.5934
vn 0.0967 0.9906 -0.0967
vn 0.1416 0.9899 0
vn -0.84 0.5425 0
vn 0.5426 0.6414 -0.5423
vn 0.7659 0.6429 0
vn -0.5937 0.5435 -0.5934
vn 0.0967 0.9906 0.0967
vn 0.5426 0.6414 0.5423
vn 0 -0.1105 -0.9939
vn 0 0.3025 -0.9532
vn 0 0.3025 0.9532
vn 0 0.771 0.6369
vn -0.7029 -0.1107 0.7026
vn -0.6739 0.3033 0.6736
vn -0.9532 0.3025 0
vn -0.9939 -0.1105 0
vn -0.7029 -0.1107 -0.7026
vn -0.6739 0.3033 -0.6736
vn 0 -0.8083 -0.5888
vn 0 -0.5726 -0.8198
vn 0 -0.5726 0.8198
vn 0 -0.8083 0.5888
vn -0.4158 -0.8089 0.4156
vn -0.5794 -0.5735 0.5791
vn -0.8198 -0.5726 0
vn -0.5888 -0.8083 0
vn -0.4158 -0.8089 -0.4156
vn -0.5794 -0.5735 -0.5791
vn 0 0.8967 0.4427
vn 0 0.1624 0.9867
vn 0 0.9989 0.047
vn -0.5652 -0.2693 -0.7798
vn -0.4616 -0.8466 -0.2648
vn -0.4278 -0.9032 -0.0357
vn -0.9561 0.0918 0.2784
vn -0.9828 0.1829 0.0254
vn -0.961 0.2757 0.0195
vn 0 -0.6327 0.7744
vn 0 -0.815 0.5795
vn -0.492 0.5106 -0.7051
vn -0.7248 -0.5709 0.3857
vn -0.9885 -0.0995 0.1135
vn 0 -0.6389 -0.7693
vn 0 -0.7007 -0.7134
vn 0 -0.7548 -0.656
vn 0 0.6935 0.7205
vn 0 0.7396 0.6731
vn 0 0.8711 0.4911
vn -0.9498 0.3099 -0.0423
vn -0.9887 0.0122 -0.1496
vn -0.9163 -0.2281 -0.3293
vn 0 0.5006 -0.8657
vn 0 0.898 0.44
vn 0 -0.4837 -0.8752
vn 0 0.998 -0.0636
vn 0.9931 0.06 -0.101
vn -0.6251 0.715 -0.313
vn 0 1 0
vn 0 0.5378 -0.8431
vn 0 0.2878 -0.9577
vn 0 0.2878 0.9577
vn 0 0.5378 0.8431
vn -0.5964 0.5393 0.5946
vn -0.6781 0.2867 0.6767
vn -0.9578 0.2874 0
vn -0.8437 0.5369 0
vn -0.5964 0.5393 -0.5946
vn -0.6781 0.2867 -0.6767
vn 0 0.9933 -0.1152
vn 0 0.9613 -0.2753
vn 0 0.9613 0.2753
vn 0 0.9933 0.1152
vn -0.0806 0.9935 0.0805
vn -0.1943 0.9615 0.1941
vn -0.2754 0.9613 0
vn -0.1152 0.9933 0
vn -0.0806 0.9935 -0.0805
vn -0.1943 0.9615 -0.1941
vn -0.2017 -0.9585 -0.2016
vn -0.285 -0.9585 0
vn 0 -1 0
vn 0 -0.9585 -0.285
vn -0.2017 -0.9585 0.2016
vn 0 -0.9585 0.285
vn 0 0.5634 0.8262
vn 0 -0.4433 -0.8964
vn 0.9991 0.0375 -0.0189
vn 0.5937 0.5435 0.5934
vn -0.0967 0.9906 -0.0967
vn -0.1416 0.9899 0
vn 0.84 0.5425 0
vn -0.5426 0.6414 -0.5423
vn -0.7659 0.6429 0
vn 0.5937 0.5435 -0.5934
vn -0.0967 0.9906 0.0967
vn -0.5426 0.6414 0.5423
vn 0.7029 -0.1107 0.7026
vn 0.6739 0.3033 0.6736
vn 0.9532 0.3025 0
vn 0.9939 -0.1105 0
vn 0.7029 -0.1107 -0.7026
vn 0.6739 0.3033 -0.6736
vn 0.4158 -0.8089 0.4156
vn 0.5794 -0.5735 0.5791
vn 0.8198 -0.5726 0
vn 0.5888 -0.8083 0
vn 0.4158 -0.8089 -0.4156
vn 0.5794 -0.5735 -0.5791
vn 0.5652 -0.2693 -0.7798
vn 0.4616 -0.8466 -0.2648
vn 0.4278 -0.9032 -0.0357
vn 0.9561 0.0918 0.2784
vn 0.9828 0.1829 0.0254
vn 0.961 0.2757 0.0195
vn 0.492 0.5106 -0.7051
vn 0.7248 -0.5709 0.3857
vn 0.9885 -0.0995 0.1135
vn 0.9498 0.3099 -0.0423
vn 0.9887 0.0122 -0.1496
vn 0.9163 -0.2281 -0.3293
vn -0.9931 0.06 -0.101
vn 0.6251 0.715 -0.313
vn 0.5964 0.5393 0.5946
vn 0.6781 0.2867 0.6767
vn 0.9578 0.2874 0
vn 0.8437 0.5369 0
vn 0.5964 0.5393 -0.5946
vn 0.6781 0.2867 -0.6767
vn 0.0806 0.9935 0.0805
vn 0.1943 0.9615 0.1941
vn 0.2754 0.9613 0
vn 0.1152 0.9933 0
vn 0.0806 0.9935 -0.0805
vn 0.1943 0.9615 -0.1941
vn 0.2017 -0.9585 -0.2016
vn 0.285 -0.9585 0
vn 0.2017 -0.9585 0.2016
vn -0.9991 0.0375 -0.0189
f 7//7 8//8 9//9 10//10
f 8//8 11//11 12//12 9//9
f 5//5 4//4 8//8 7//7
f 4//4 6//6 11//11 8//8
f 13//13 14//14 2//2 1//1
f 14//14 15//15 3//3 2//2
f 10//10 9//9 14//14 13//13
f 9//9 12//12 15//15 14//14
f 20//20 21//21 22//22 23//23
f 21//21 7//7 10//10 22//22
f 19//19 18//18 21//21 20//20
f 18//18 5//5 7//7 21//21
f 24//24 25//25 17//17 16//16
f 25//25 13//13 1//1 17//17
f 23//23 22//22 25//25 24//24
f 22//22 10//10 13//13 25//25
f 30//30 31//31 32//32 33//33
f 31//31 20//20 23//23 32//32
f 29//29 28//28 31//31 30//30
f 28//28 19//19 20//20 31//31
f 34//34 35//35 27//27 26//26
f 35//35 24//24 16//16 27//27
f 33//33 32//32 35//35 34//34
f 32//32 23//23 24//24 35//35
f 42//42 43//43 40//40 39//39
f 43//43 44//44 41//41 40//40
f 37//37 36//36 43//43 42//42
f 36//36 38//38 44//44 43//43
f 48//48 49//49 47//47 19//19
f 49//49 42//42 39//39 47//47
f 46//46 45//45 49//49 48//48
f 45//45 37//37 42//42 49//49
f 56//56 57//57 54//54 53//53
f 57//57 58//58 55//55 54//54
f 51//51 50//50 57//57 56//56
f 50//50 52//52 58//58 57//57
f 63//63 64//64 62//62 61//61
f 64//64 56//56 53//53 62//62
f 60//60 59//59 64//64 63//63
f 59//59 51//51 56//56 64//64
f 70//70 71//71 72//72 73//73
f 71//71 65//65 72//72
f 69//69 68//68 71//71 70//70
f 68//68 65//65 71//71
f 74//74 75//75 67//67 66//66
f 75//75 65//65 67//67
f 73//73 72//72 75//75 74//74
f 72//72 65//65 75//75
f 80//80 81//81 82//82 83//83
f 81//81 70//70 73//73 82//82
f 79//79 78//78 81//81 80//80
f 78//78 69//69 70//70 81//81
f 84//84 85//85 77//77 76//76
f 85//85 74//74 66//66 77//77
f 83//83 82//82 85//85 84//84
f 82//82 73//73 74//74 85//85
f 34//34 86//86 87//87 33//33
f 86//86 88//88 87//87
f 26//26 89//89 86//86 34//34
f 89//89 88//88 86//86
f 30//30 90//90 91//91 29//29
f 90//90 88//88 91//91
f 33//33 87//87 90//90 30//30
f 87//87 88//88 90//90
f 79//79 80//80 11//11 6//6
f 80//80 83//83 12//12 11//11
f 83//83 84//84 15//15 12//12
f 84//84 76//76 3//3 15//15
f 60//60 63//63 94//94 92//92
f 63//63 61//61 93//93 94//94
f 95//95 98//98 97//97 96//96
f 96//96 97//97 100//100 99//99
f 5//5 95//95 96//96 4//4
f 4//4 96//96 99//99 6//6
f 101//101 1//1 2//2 102//102
f 102//102 2//2 3//3 103//103
f 98//98 101//101 102//102 97//97
f 97//97 102//102 103//103 100//100
f 104//104 107//107 106//106 105//105
f 105//105 106//106 98//98 95//95
f 19//19 104//104 105//105 18//18
f 18//18 105//105 95//95 5//5
f 108//108 16//16 17//17 109//109
f 109//109 17//17 1//1 101//101
f 107//107 108//108 109//109 106//106
f 106//106 109//109 101//101 98//98
f 110//110 113//113 112//112 111//111
f 111//111 112//112 107//107 104//104
f 29//29 110//110 111//111 28//28
f 28//28 111//111 104//104 19//19
f 114//114 26//26 27//27 115//115
f 115//115 27//27 16//16 108//108
f 113//113 114//114 115//115 112//112
f 112//112 115//115 108//108 107//107
f 119//119 116//116 117//117 120//120
f 120//120 117//117 118//118 121//121
f 37//37 119//119 120//120 36//36
f 36//36 120//120 121//121 38//38
f 123//123 19//19 122//122 124//124
f 124//124 122//122 116//116 119//119
f 46//46 123//123 124//124 45//45
f 45//45 124//124 119//119 37//37
f 125//125 53//53 54//54 126//126
f 126//126 54//54 55//55 127//127
f 51//51 125//125 126//126 50//50
f 50//50 126//126 127//127 52//52
f 128//128 61//61 62//62 129//129
f 129//129 62//62 53//53 125//125
f 60//60 128//128 129//129 59//59
f 59//59 129//129 125//125 51//51
f 130//130 133//133 132//132 131//131
f 131//131 132//132 65//65
f 69//69 130//130 131//131 68//68
f 68//68 131//131 65//65
f 134//134 66//66 67//67 135//135
f 135//135 67//67 65//65
f 133//133 134//134 135//135 132//132
f 132//132 135//135 65//65
f 136//136 139//139 138//138 137//137
f 137//137 138//138 133//133 130//130
f 79//79 136//136 137//137 78//78
f 78//78 137//137 130//130 69//69
f 140//140 76//76 77//77 141//141
f 141//141 77//77 66//66 134//134
f 139//139 140//140 141//141 138//138
f 138//138 141//141 134//134 133//133
f 114//114 113//113 143//143 142//142
f 142//142 143//143 88//88
f 26//26 114//114 142//142 89//89
f 89//89 142//142 88//88
f 110//110 29//29 91//91 144//144
f 144//144 91//91 88//88
f 113//113 110//110 144//144 143//143
f 143//143 144//144 88//88
f 79//79 6//6 99//99 136//136
f 136//136 99//99 100//100 139//139
f 139//139 100//100 103//103 140//140
f 140//140 103//103 3//3 76//76
f 60//60 92//92 145//145 128//128
f 128//128 145//145 93//93 61//61
